{
  "asset": {
    "version": "2.0",
    "generator": "3dpea GLTFExporter"
  },
  "scenes": [
    {
      "name": "AuxScene",
      "nodes": [
        2
      ]
    }
  ],
  "scene": 0,
  "nodes": [
    {
      "name": "Cliff - Dining Table 150x150",
      "mesh": 0
    },
    {
      "name": "Cliff - Dining Table 150x150",
      "mesh": 1
    },
    {
      "children": [
        0,
        1
      ]
    }
  ],
  "bufferViews": [
    {
      "buffer": 0,
      "byteOffset": 0,
      "byteLength": 358200,
      "target": 34962,
      "byteStride": 12
    },
    {
      "buffer": 0,
      "byteOffset": 358200,
      "byteLength": 358200,
      "target": 34962,
      "byteStride": 12
    },
    {
      "buffer": 0,
      "byteOffset": 716400,
      "byteLength": 119400,
      "target": 34962,
      "byteStride": 4
    },
    {
      "buffer": 0,
      "byteOffset": 835800,
      "byteLength": 7128,
      "target": 34962,
      "byteStride": 12
    },
    {
      "buffer": 0,
      "byteOffset": 842928,
      "byteLength": 7128,
      "target": 34962,
      "byteStride": 12
    },
    {
      "buffer": 0,
      "byteOffset": 850056,
      "byteLength": 2376,
      "target": 34962,
      "byteStride": 4
    }
  ],
  "buffers": [
    {
      "byteLength": 852432,
      "uri": "data:application/octet-stream;base64,"
    }
  ],
  "accessors": [
    {
      "bufferView": 0,
      "componentType": 5126,
      "count": 29850,
      "max": [
        0.2919139862060547,
        0.7036669850349426,
        0.29152798652648926
      ],
      "min": [
        -0.29152899980545044,
        -0.0018500000005587935,
        -0.29213500022888184
      ],
      "type": "VEC3"
    },
    {
      "bufferView": 1,
      "componentType": 5126,
      "count": 29850,
      "max": [
        1,
        1,
        1
      ],
      "min": [
        -1,
        -1,
        -1
      ],
      "type": "VEC3"
    },
    {
      "bufferView": 2,
      "componentType": 5125,
      "count": 29850,
      "max": [
        26864
      ],
      "min": [
        70
      ],
      "type": "SCALAR"
    },
    {
      "bufferView": 3,
      "componentType": 5126,
      "count": 594,
      "max": [
        0.7449989914894104,
        0.7168809771537781,
        0.7450000047683716
      ],
      "min": [
        -0.7450010180473328,
        0.7008810043334961,
        -0.7450000047683716
      ],
      "type": "VEC3"
    },
    {
      "bufferView": 4,
      "componentType": 5126,
      "count": 594,
      "max": [
        1,
        1,
        1
      ],
      "min": [
        -1,
        -1,
        -1
      ],
      "type": "VEC3"
    },
    {
      "bufferView": 5,
      "componentType": 5125,
      "count": 594,
      "max": [
        28236
      ],
      "min": [
        28236
      ],
      "type": "SCALAR"
    }
  ],
  "materials": [
    {
      "pbrMetallicRoughness": {
        "metallicFactor": 0,
        "roughnessFactor": 1
      },
      "doubleSided": true,
      "name": "Mat_1"
    },
    {
      "pbrMetallicRoughness": {
        "baseColorFactor": [
          0.933333333333333,
          0.92156862745098,
          0.882352941176471,
          1
        ],
        "metallicFactor": 0,
        "roughnessFactor": 1
      },
      "doubleSided": true,
      "name": "Mat_2"
    }
  ],
  "meshes": [
    {
      "primitives": [
        {
          "mode": 4,
          "attributes": {
            "POSITION": 0,
            "NORMAL": 1,
            "_EXPRESSID": 2
          },
          "extras": {
            "mergedUserData": [
              {}
            ]
          },
          "material": 0
        }
      ]
    },
    {
      "primitives": [
        {
          "mode": 4,
          "attributes": {
            "POSITION": 3,
            "NORMAL": 4,
            "_EXPRESSID": 5
          },
          "extras": {
            "mergedUserData": [
              {}
            ]
          },
          "material": 1
        }
      ]
    }
  ]
}